<?xml version="1.0" encoding="utf-8"?>
<!-- Generator: Adobe Illustrator 24.1.3, SVG Export Plug-In . SVG Version: 6.00 Build 0)  -->
<svg version="1.1" id="Layer_1" xmlns:v="https://vecta.io/nano"
	 xmlns="http://www.w3.org/2000/svg" xmlns:xlink="http://www.w3.org/1999/xlink" x="0px" y="0px" viewBox="0 0 635.2 90.4"
	 style="enable-background:new 0 0 635.2 90.4;" xml:space="preserve">
<style type="text/css">
	.st0{fill:#FFFFFF;}
</style>
<path class="st0" d="M121.4,51.2v30.1H103v-27c0-7.6-3.3-10.8-8.6-10.8c-5.9,0-10.5,3.7-10.5,12.4v25.4H65.3V28.7h17.6v5.7
	c4.2-4.4,10.1-6.6,16.7-6.6C111.9,27.9,121.4,34.9,121.4,51.2 M128.7,76.8l5.5-12.6c4.9,3,11.9,4.9,18.3,4.9c6.2,0,8.3-1.4,8.3-3.6
	c0-7.1-31.1,1-31.1-20.1c0-9.9,9.1-17.5,25.6-17.5c7.4,0,15.5,1.6,20.8,4.5l-5.5,12.5c-5.2-2.9-10.5-3.9-15.1-3.9
	c-6.2,0-8.4,1.7-8.4,3.7c0,7.3,31-0.6,31,20.3c0,9.7-8.9,17.3-26,17.3C143.1,82.2,133.9,80,128.7,76.8 M222.3,79.2
	c-3.2,2-8,3-12.8,3c-13.5,0-21.4-6.6-21.4-20.1V44.5h-7.6V30.7h7.7V17h18.4v13.7h12v13.8h-12V62c0,3.9,2.2,6,5.5,6
	c2,0,4.1-0.6,5.6-1.6L222.3,79.2z M227.3,13.1c0-5.5,4.5-9.8,11.3-9.8s11.3,4,11.3,9.5c0,5.8-4.5,10.1-11.3,10.1
	S227.3,18.6,227.3,13.1 M229.4,28.7h18.4v52.6h-18.4C229.4,81.3,229.4,28.7,229.4,28.7z M315.8,51.2v30.1h-18.4v-27
	c0-7.6-3.3-10.8-8.6-10.8c-5.9,0-10.5,3.7-10.5,12.4v25.4h-18.4V28.7h17.6v5.7c4.2-4.4,10.1-6.6,16.7-6.6
	C306.4,27.9,315.8,34.9,315.8,51.2 M324.8,54.9c0-15.8,12.5-27.1,30.2-27.1c11.9,0,21.1,5.3,24.7,14.5l-14.3,7.3
	c-2.5-4.9-6.2-7.1-10.5-7.1c-6.4,0-11.5,4.5-11.5,12.4c0,8.2,5,12.6,11.5,12.6c4.3,0,8-2.1,10.5-7.1l14.3,7.3
	c-3.6,9.1-12.7,14.5-24.7,14.5C337.3,82.2,324.8,71,324.8,54.9 M423.8,79.2c-3.2,2-8,3-12.8,3c-13.5,0-21.4-6.6-21.4-20.1V44.5h-7.7
	V30.7h7.7V17H408v13.7h12v13.8h-12V62c0,3.9,2.2,6,5.5,6c2,0,4.1-0.6,5.6-1.6L423.8,79.2L423.8,79.2z"/>
<g>
	<path class="st0" d="M496.4,13.4v67.9h-19.2V54.8H451v26.5h-19.2V13.4H451v25.5h26.2V13.4H496.4z M564.5,28.7v52.6h-17.6v-5.6
		c-4,4.4-9.6,6.5-15.6,6.5c-12.9,0-22.3-7.4-22.3-24.1V28.7h18.4v26.4c0,8.2,3.2,11.4,8.7,11.4c5.4,0,9.9-3.6,9.9-12.4V28.7H564.5
		L564.5,28.7z"/>
	<path class="st0" d="M635.2,54.9c0,16.8-11.6,27.3-25.8,27.3c-6.9,0-12-1.9-15.5-6.1v5.2h-17.6v-72h18.4v24
		c3.6-3.7,8.5-5.4,14.7-5.4C623.7,27.9,635.2,38.2,635.2,54.9 M616.6,54.9c0-8-4.9-12.4-11.1-12.4s-11.1,4.5-11.1,12.4
		c0,8.1,4.9,12.6,11.1,12.6C611.7,67.6,616.6,63,616.6,54.9 M12.1,34.4c-0.2-1.1-0.3-2.2-0.3-3.3c0-9,7.3-16.4,16.4-16.4
		c1.1,0,2.1,0.1,3.2,0.3L30.1,21c-0.7-0.1-1.3-0.2-2-0.2c-5.7,0-10.4,4.6-10.4,10.4c0,0.7,0.1,1.4,0.2,2.1L12.1,34.4L12.1,34.4z"/>
	<path class="st0" d="M28.1,58.5C13,58.5,0.7,46.2,0.7,31.2S13,3.8,28.1,3.8s27.4,12.3,27.4,27.4S43.2,58.5,28.1,58.5z M28.1,9.8
		c-11.8,0-21.4,9.6-21.4,21.4s9.6,21.3,21.4,21.3s21.4-9.6,21.4-21.4S39.8,9.8,28.1,9.8z"/>
</g>
<path class="st0" d="M15.7,40.5h24.7v39.3H15.7V40.5z"/>
</svg>
